<?xml version="1.0" encoding="UTF-8"?>
<svg xmlns="http://www.w3.org/2000/svg" version="1.1" viewBox="0 0 450 450">
  <defs>
    <style>
      .cls-1 {
        fill: #eed3b1;
      }
    </style>
  </defs>
  <!-- Generator: Adobe Illustrator 28.7.3, SVG Export Plug-In . SVG Version: 1.2.0 Build 164)  -->
  <g>
    <g id="Layer_1">
      <path class="cls-1" d="M130.03,9.34c43.07,0,77.99,36,77.99,80.4v183.76c0,68.41,48.68,117.07,111.46,117.07,5.79,0,11.47-.45,17.02-1.31-30.07,24.97-68.7,39.99-110.85,39.99-95.88,0-173.61-77.73-173.61-173.61V89.74c0-44.4,34.92-80.4,77.99-80.4ZM239.37,280.31c0,44.24,35.87,80.11,80.11,80.11s80.11-35.87,80.11-80.11-35.87-80.11-80.11-80.11-80.11,35.87-80.11,80.11Z"/>
    </g>
  </g>
</svg>